<svg width="900" height="200" viewBox="0 0 900 200" xmlns="http://www.w3.org/2000/svg">
  <defs>
    <linearGradient id="skyF" x1="0%" y1="0%" x2="100%" y2="100%">
      <stop offset="0%" stop-color="#C9A6EE"/>
      <stop offset="50%" stop-color="#F3B8E8"/>
      <stop offset="100%" stop-color="#FFD6EE"/>
    </linearGradient>
    <linearGradient id="meadow" x1="0%" y1="0%" x2="0%" y2="100%">
      <stop offset="0%" stop-color="#E7A9E0"/>
      <stop offset="100%" stop-color="#D48FDD"/>
    </linearGradient>
  </defs>

  <rect width="900" height="200" fill="url(#skyF)"/>

  <g fill="#FFFFFF">
    <circle cx="100" cy="35" r="1.8"><animate attributeName="opacity" values="1;0.3;1" dur="2.6s" repeatCount="indefinite"/></circle>
    <circle cx="200" cy="55" r="1.4"><animate attributeName="opacity" values="0.3;1;0.3" dur="3s" repeatCount="indefinite"/></circle>
    <circle cx="760" cy="40" r="1.8"><animate attributeName="opacity" values="1;0.3;1" dur="2.4s" repeatCount="indefinite"/></circle>
    <circle cx="820" cy="60" r="1.4"><animate attributeName="opacity" values="0.4;1;0.4" dur="2.8s" repeatCount="indefinite"/></circle>
  </g>

  <circle cx="120" cy="50" r="20" fill="#FFFBF0"/>
  <circle cx="130" cy="43" r="17" fill="url(#skyF)"/>

  <path d="M0,140 Q150,100 300,135 T600,130 T900,140 L900,200 L0,200 Z" fill="url(#meadow)"/>

  <g>
    <ellipse cx="200" cy="150" rx="14" ry="9" fill="#FF6FB5"/>
    <rect x="195" y="150" width="10" height="12" rx="4" fill="#FFEAF5"/>
  </g>
  <g>
    <ellipse cx="700" cy="160" rx="16" ry="10" fill="#B679E0"/>
    <rect x="694" y="160" width="12" height="13" rx="5" fill="#FFEAF5"/>
  </g>

  <g fill="#FFE3F4">
    <circle cx="250" cy="165" r="3"/>
    <circle cx="400" cy="172" r="3"/>
    <circle cx="550" cy="163" r="3"/>
    <circle cx="640" cy="178" r="3"/>
    <circle cx="330" cy="180" r="3"/>
  </g>

  <text x="450" y="105" text-anchor="middle" font-family="'Brush Script MT','Segoe Script',cursive" font-size="34" fill="#FFFFFF">thanks for visiting</text>
  <text x="450" y="128" text-anchor="middle" font-family="Georgia, serif" font-size="14" letter-spacing="2" fill="#FFEAF5">COME BACK SOON &#183; 🌷</text>
</svg>
