<svg width="900" height="260" viewBox="0 0 900 260" xmlns="http://www.w3.org/2000/svg">
<defs>
  <radialGradient id="fireflyGlow" cx="50%" cy="50%" r="50%">
    <stop offset="0%" stop-color="#FFF6C9" stop-opacity="1"/>
    <stop offset="100%" stop-color="#FFF6C9" stop-opacity="0"/>
  </radialGradient>
</defs>
<g fill="#B7DCB0" opacity="0.85">
<ellipse cx="-20" cy="186" rx="40" ry="28"/>
<ellipse cx="14" cy="188" rx="31" ry="21"/>
<ellipse cx="50" cy="179" rx="33" ry="23"/>
<ellipse cx="87" cy="174" rx="31" ry="21"/>
<ellipse cx="118" cy="188" rx="31" ry="21"/>
<ellipse cx="152" cy="188" rx="43" ry="30"/>
<ellipse cx="183" cy="173" rx="32" ry="22"/>
<ellipse cx="217" cy="172" rx="31" ry="21"/>
<ellipse cx="246" cy="170" rx="37" ry="25"/>
<ellipse cx="284" cy="172" rx="31" ry="21"/>
<ellipse cx="321" cy="189" rx="42" ry="29"/>
<ellipse cx="352" cy="173" rx="31" ry="21"/>
<ellipse cx="382" cy="177" rx="39" ry="27"/>
<ellipse cx="412" cy="172" rx="33" ry="23"/>
<ellipse cx="444" cy="187" rx="35" ry="24"/>
<ellipse cx="481" cy="179" rx="36" ry="25"/>
<ellipse cx="510" cy="172" rx="32" ry="22"/>
<ellipse cx="538" cy="175" rx="36" ry="25"/>
<ellipse cx="576" cy="180" rx="43" ry="30"/>
<ellipse cx="611" cy="179" rx="44" ry="30"/>
<ellipse cx="643" cy="185" rx="37" ry="25"/>
<ellipse cx="682" cy="188" rx="37" ry="25"/>
<ellipse cx="719" cy="174" rx="39" ry="27"/>
<ellipse cx="754" cy="176" rx="40" ry="28"/>
<ellipse cx="786" cy="187" rx="32" ry="22"/>
<ellipse cx="822" cy="185" rx="43" ry="30"/>
<ellipse cx="862" cy="186" rx="40" ry="28"/>
<ellipse cx="897" cy="189" rx="43" ry="30"/>
</g>
<g fill="#9ED197">
<ellipse cx="-20" cy="198" rx="38" ry="28"/>
<ellipse cx="19" cy="205" rx="46" ry="34"/>
<ellipse cx="60" cy="196" rx="47" ry="35"/>
<ellipse cx="97" cy="201" rx="54" ry="40"/>
<ellipse cx="128" cy="207" rx="38" ry="28"/>
<ellipse cx="165" cy="214" rx="38" ry="28"/>
<ellipse cx="206" cy="195" rx="45" ry="33"/>
<ellipse cx="245" cy="206" rx="50" ry="37"/>
<ellipse cx="286" cy="204" rx="48" ry="36"/>
<ellipse cx="316" cy="204" rx="50" ry="37"/>
<ellipse cx="348" cy="212" rx="55" ry="41"/>
<ellipse cx="385" cy="209" rx="37" ry="27"/>
<ellipse cx="427" cy="211" rx="45" ry="33"/>
<ellipse cx="468" cy="203" rx="43" ry="32"/>
<ellipse cx="504" cy="213" rx="51" ry="38"/>
<ellipse cx="536" cy="203" rx="50" ry="37"/>
<ellipse cx="574" cy="211" rx="44" ry="33"/>
<ellipse cx="610" cy="207" rx="53" ry="39"/>
<ellipse cx="651" cy="204" rx="49" ry="36"/>
<ellipse cx="691" cy="208" rx="48" ry="36"/>
<ellipse cx="723" cy="210" rx="38" ry="28"/>
<ellipse cx="755" cy="208" rx="43" ry="32"/>
<ellipse cx="785" cy="197" rx="51" ry="38"/>
<ellipse cx="817" cy="206" rx="44" ry="33"/>
<ellipse cx="847" cy="202" rx="40" ry="30"/>
<ellipse cx="885" cy="196" rx="47" ry="35"/>
</g>
<g fill="#7FBF78">
<ellipse cx="-20" cy="241" rx="52" ry="41"/>
<ellipse cx="25" cy="226" rx="58" ry="46"/>
<ellipse cx="69" cy="231" rx="43" ry="34"/>
<ellipse cx="115" cy="233" rx="59" ry="47"/>
<ellipse cx="155" cy="233" rx="54" ry="43"/>
<ellipse cx="190" cy="225" rx="57" ry="45"/>
<ellipse cx="230" cy="239" rx="43" ry="34"/>
<ellipse cx="265" cy="231" rx="48" ry="38"/>
<ellipse cx="301" cy="235" rx="45" ry="36"/>
<ellipse cx="344" cy="242" rx="43" ry="34"/>
<ellipse cx="378" cy="241" rx="60" ry="48"/>
<ellipse cx="420" cy="234" rx="45" ry="36"/>
<ellipse cx="463" cy="243" rx="42" ry="33"/>
<ellipse cx="500" cy="233" rx="61" ry="48"/>
<ellipse cx="536" cy="237" rx="62" ry="49"/>
<ellipse cx="575" cy="234" rx="61" ry="48"/>
<ellipse cx="616" cy="242" rx="45" ry="36"/>
<ellipse cx="657" cy="230" rx="56" ry="44"/>
<ellipse cx="698" cy="243" rx="51" ry="40"/>
<ellipse cx="734" cy="235" rx="45" ry="36"/>
<ellipse cx="779" cy="230" rx="50" ry="40"/>
<ellipse cx="824" cy="229" rx="47" ry="37"/>
<ellipse cx="858" cy="229" rx="48" ry="38"/>
<ellipse cx="897" cy="228" rx="46" ry="36"/>
</g>
<g stroke="#5FA858" stroke-width="2" stroke-linecap="round">
<line x1="682.3" y1="253.4" x2="684.0" y2="239.4"/>
<line x1="81.9" y1="241.4" x2="82.1" y2="227.4"/>
<line x1="817.4" y1="252.2" x2="814.1" y2="238.2"/>
<line x1="487.4" y1="248.9" x2="489.0" y2="234.9"/>
<line x1="551.9" y1="242.7" x2="555.0" y2="228.7"/>
<line x1="175.6" y1="254.7" x2="174.4" y2="240.7"/>
<line x1="723.0" y1="255.6" x2="722.9" y2="241.6"/>
<line x1="657.9" y1="238.2" x2="661.4" y2="224.2"/>
<line x1="425.0" y1="255.7" x2="426.3" y2="241.7"/>
<line x1="309.9" y1="242.2" x2="312.5" y2="228.2"/>
<line x1="314.6" y1="238.6" x2="309.5" y2="224.6"/>
<line x1="91.9" y1="249.7" x2="90.0" y2="235.7"/>
<line x1="434.4" y1="238.3" x2="435.7" y2="224.3"/>
<line x1="1.7" y1="240.0" x2="-0.2" y2="226.0"/>
<line x1="578.8" y1="241.6" x2="574.3" y2="227.6"/>
<line x1="349.7" y1="244.3" x2="346.1" y2="230.3"/>
<line x1="800.1" y1="250.5" x2="801.7" y2="236.5"/>
<line x1="78.1" y1="239.2" x2="80.7" y2="225.2"/>
<line x1="416.8" y1="243.6" x2="411.9" y2="229.6"/>
<line x1="143.0" y1="238.2" x2="137.3" y2="224.2"/>
<line x1="531.7" y1="249.8" x2="533.6" y2="235.8"/>
<line x1="550.4" y1="246.9" x2="550.1" y2="232.9"/>
<line x1="843.7" y1="256.6" x2="844.3" y2="242.6"/>
<line x1="19.3" y1="242.4" x2="22.0" y2="228.4"/>
<line x1="92.5" y1="243.5" x2="88.2" y2="229.5"/>
<line x1="887.9" y1="255.7" x2="892.4" y2="241.7"/>
<line x1="25.2" y1="255.3" x2="25.2" y2="241.3"/>
<line x1="687.3" y1="252.8" x2="687.8" y2="238.8"/>
<line x1="750.8" y1="258.7" x2="753.7" y2="244.7"/>
<line x1="807.9" y1="245.4" x2="811.7" y2="231.4"/>
<line x1="465.1" y1="241.8" x2="469.6" y2="227.8"/>
<line x1="117.7" y1="256.7" x2="117.8" y2="242.7"/>
<line x1="785.5" y1="242.9" x2="786.8" y2="228.9"/>
<line x1="698.4" y1="256.7" x2="694.1" y2="242.7"/>
<line x1="557.2" y1="257.4" x2="551.9" y2="243.4"/>
<line x1="614.1" y1="248.3" x2="613.9" y2="234.3"/>
<line x1="698.8" y1="240.6" x2="693.5" y2="226.6"/>
<line x1="172.2" y1="259.1" x2="167.3" y2="245.1"/>
<line x1="407.0" y1="259.4" x2="411.7" y2="245.4"/>
<line x1="57.0" y1="252.8" x2="62.7" y2="238.8"/>
</g>
<g>
<g transform="translate(15.0,238.7)">
  <animateTransform attributeName="transform" type="rotate" values="-4 0 0;4 0 0;-4 0 0" dur="4.3s" begin="0.6s" repeatCount="indefinite" additive="sum"/>
  <line x1="0" y1="0" x2="0" y2="-21.4" stroke="#5FA858" stroke-width="2.4"/>
  <circle cx="-4.4" cy="-21.4" r="4.4" fill="#FF6FB5"/>
  <circle cx="4.4" cy="-21.4" r="4.4" fill="#FF6FB5"/>
  <circle cx="0.0" cy="-25.9" r="4.4" fill="#FF6FB5"/>
  <circle cx="0.0" cy="-17.0" r="4.4" fill="#FF6FB5"/>
  <circle cx="-3.1" cy="-24.6" r="4.4" fill="#FF6FB5"/>
  <circle cx="0" cy="-21.4" r="2.8" fill="#FFEFA8"/>
</g>
<g transform="translate(50.1,246.6)">
  <animateTransform attributeName="transform" type="rotate" values="-4 0 0;4 0 0;-4 0 0" dur="4.5s" begin="1.8s" repeatCount="indefinite" additive="sum"/>
  <line x1="0" y1="0" x2="0" y2="-30.2" stroke="#5FA858" stroke-width="2.4"/>
  <circle cx="-5.2" cy="-30.2" r="5.2" fill="#B679E0"/>
  <circle cx="5.2" cy="-30.2" r="5.2" fill="#B679E0"/>
  <circle cx="0.0" cy="-35.3" r="5.2" fill="#B679E0"/>
  <circle cx="0.0" cy="-25.0" r="5.2" fill="#B679E0"/>
  <circle cx="-3.6" cy="-33.8" r="5.2" fill="#B679E0"/>
  <circle cx="0" cy="-30.2" r="3.3" fill="#FFEFA8"/>
</g>
<g transform="translate(90.6,247.5)">
  <animateTransform attributeName="transform" type="rotate" values="-4 0 0;4 0 0;-4 0 0" dur="3.6s" begin="0.8s" repeatCount="indefinite" additive="sum"/>
  <line x1="0" y1="0" x2="0" y2="-22.7" stroke="#5FA858" stroke-width="2.4"/>
  <circle cx="-5.0" cy="-22.7" r="5.0" fill="#FFD97A"/>
  <circle cx="5.0" cy="-22.7" r="5.0" fill="#FFD97A"/>
  <circle cx="0.0" cy="-27.7" r="5.0" fill="#FFD97A"/>
  <circle cx="0.0" cy="-17.7" r="5.0" fill="#FFD97A"/>
  <circle cx="-3.5" cy="-26.2" r="5.0" fill="#FFD97A"/>
  <circle cx="0" cy="-22.7" r="3.2" fill="#FFEFA8"/>
</g>
<g transform="translate(128.0,242.6)">
  <animateTransform attributeName="transform" type="rotate" values="-4 0 0;4 0 0;-4 0 0" dur="4.3s" begin="0.6s" repeatCount="indefinite" additive="sum"/>
  <line x1="0" y1="0" x2="0" y2="-17.4" stroke="#5FA858" stroke-width="2.4"/>
  <circle cx="-4.5" cy="-17.4" r="4.5" fill="#8EC5FC"/>
  <circle cx="4.5" cy="-17.4" r="4.5" fill="#8EC5FC"/>
  <circle cx="0.0" cy="-21.9" r="4.5" fill="#8EC5FC"/>
  <circle cx="0.0" cy="-13.0" r="4.5" fill="#8EC5FC"/>
  <circle cx="-3.1" cy="-20.6" r="4.5" fill="#8EC5FC"/>
  <circle cx="0" cy="-17.4" r="2.9" fill="#FFEFA8"/>
</g>
<g transform="translate(169.2,237.8)">
  <animateTransform attributeName="transform" type="rotate" values="-4 0 0;4 0 0;-4 0 0" dur="3.9s" begin="0.5s" repeatCount="indefinite" additive="sum"/>
  <line x1="0" y1="0" x2="0" y2="-19.0" stroke="#5FA858" stroke-width="2.4"/>
  <circle cx="-4.8" cy="-19.0" r="4.8" fill="#FFB37A"/>
  <circle cx="4.8" cy="-19.0" r="4.8" fill="#FFB37A"/>
  <circle cx="0.0" cy="-23.8" r="4.8" fill="#FFB37A"/>
  <circle cx="0.0" cy="-14.1" r="4.8" fill="#FFB37A"/>
  <circle cx="-3.4" cy="-22.3" r="4.8" fill="#FFB37A"/>
  <circle cx="0" cy="-19.0" r="3.1" fill="#FFEFA8"/>
</g>
<g transform="translate(207.6,249.9)">
  <animateTransform attributeName="transform" type="rotate" values="-4 0 0;4 0 0;-4 0 0" dur="3.5s" begin="0.3s" repeatCount="indefinite" additive="sum"/>
  <line x1="0" y1="0" x2="0" y2="-31.2" stroke="#5FA858" stroke-width="2.4"/>
  <circle cx="-6.0" cy="-31.2" r="6.0" fill="#FF9AD1"/>
  <circle cx="6.0" cy="-31.2" r="6.0" fill="#FF9AD1"/>
  <circle cx="0.0" cy="-37.2" r="6.0" fill="#FF9AD1"/>
  <circle cx="0.0" cy="-25.2" r="6.0" fill="#FF9AD1"/>
  <circle cx="-4.2" cy="-35.4" r="6.0" fill="#FF9AD1"/>
  <circle cx="0" cy="-31.2" r="3.8" fill="#FFEFA8"/>
</g>
<g transform="translate(245.5,230.1)">
  <animateTransform attributeName="transform" type="rotate" values="-4 0 0;4 0 0;-4 0 0" dur="3.3s" begin="0.8s" repeatCount="indefinite" additive="sum"/>
  <line x1="0" y1="0" x2="0" y2="-21.9" stroke="#5FA858" stroke-width="2.4"/>
  <circle cx="-4.9" cy="-21.9" r="4.9" fill="#C9A6EE"/>
  <circle cx="4.9" cy="-21.9" r="4.9" fill="#C9A6EE"/>
  <circle cx="0.0" cy="-26.8" r="4.9" fill="#C9A6EE"/>
  <circle cx="0.0" cy="-17.0" r="4.9" fill="#C9A6EE"/>
  <circle cx="-3.4" cy="-25.3" r="4.9" fill="#C9A6EE"/>
  <circle cx="0" cy="-21.9" r="3.1" fill="#FFEFA8"/>
</g>
<g transform="translate(278.6,244.6)">
  <animateTransform attributeName="transform" type="rotate" values="-4 0 0;4 0 0;-4 0 0" dur="3.9s" begin="1.4s" repeatCount="indefinite" additive="sum"/>
  <line x1="0" y1="0" x2="0" y2="-22.8" stroke="#5FA858" stroke-width="2.4"/>
  <circle cx="-5.0" cy="-22.8" r="5.0" fill="#FF6FB5"/>
  <circle cx="5.0" cy="-22.8" r="5.0" fill="#FF6FB5"/>
  <circle cx="0.0" cy="-27.8" r="5.0" fill="#FF6FB5"/>
  <circle cx="0.0" cy="-17.7" r="5.0" fill="#FF6FB5"/>
  <circle cx="-3.5" cy="-26.3" r="5.0" fill="#FF6FB5"/>
  <circle cx="0" cy="-22.8" r="3.2" fill="#FFEFA8"/>
</g>
<g transform="translate(310.8,230.9)">
  <animateTransform attributeName="transform" type="rotate" values="-4 0 0;4 0 0;-4 0 0" dur="4.4s" begin="1.8s" repeatCount="indefinite" additive="sum"/>
  <line x1="0" y1="0" x2="0" y2="-17.6" stroke="#5FA858" stroke-width="2.4"/>
  <circle cx="-4.3" cy="-17.6" r="4.3" fill="#B679E0"/>
  <circle cx="4.3" cy="-17.6" r="4.3" fill="#B679E0"/>
  <circle cx="0.0" cy="-21.9" r="4.3" fill="#B679E0"/>
  <circle cx="0.0" cy="-13.4" r="4.3" fill="#B679E0"/>
  <circle cx="-3.0" cy="-20.6" r="4.3" fill="#B679E0"/>
  <circle cx="0" cy="-17.6" r="2.7" fill="#FFEFA8"/>
</g>
<g transform="translate(339.9,246.0)">
  <animateTransform attributeName="transform" type="rotate" values="-4 0 0;4 0 0;-4 0 0" dur="4.3s" begin="0.4s" repeatCount="indefinite" additive="sum"/>
  <line x1="0" y1="0" x2="0" y2="-32.7" stroke="#5FA858" stroke-width="2.4"/>
  <circle cx="-6.0" cy="-32.7" r="6.0" fill="#FFD97A"/>
  <circle cx="6.0" cy="-32.7" r="6.0" fill="#FFD97A"/>
  <circle cx="0.0" cy="-38.7" r="6.0" fill="#FFD97A"/>
  <circle cx="0.0" cy="-26.7" r="6.0" fill="#FFD97A"/>
  <circle cx="-4.2" cy="-36.9" r="6.0" fill="#FFD97A"/>
  <circle cx="0" cy="-32.7" r="3.9" fill="#FFEFA8"/>
</g>
<g transform="translate(379.8,237.1)">
  <animateTransform attributeName="transform" type="rotate" values="-4 0 0;4 0 0;-4 0 0" dur="3.9s" begin="0.8s" repeatCount="indefinite" additive="sum"/>
  <line x1="0" y1="0" x2="0" y2="-30.0" stroke="#5FA858" stroke-width="2.4"/>
  <circle cx="-6.1" cy="-30.0" r="6.1" fill="#8EC5FC"/>
  <circle cx="6.1" cy="-30.0" r="6.1" fill="#8EC5FC"/>
  <circle cx="0.0" cy="-36.1" r="6.1" fill="#8EC5FC"/>
  <circle cx="0.0" cy="-23.8" r="6.1" fill="#8EC5FC"/>
  <circle cx="-4.3" cy="-34.2" r="6.1" fill="#8EC5FC"/>
  <circle cx="0" cy="-30.0" r="3.9" fill="#FFEFA8"/>
</g>
<g transform="translate(414.8,244.8)">
  <animateTransform attributeName="transform" type="rotate" values="-4 0 0;4 0 0;-4 0 0" dur="4.5s" begin="1.6s" repeatCount="indefinite" additive="sum"/>
  <line x1="0" y1="0" x2="0" y2="-18.7" stroke="#5FA858" stroke-width="2.4"/>
  <circle cx="-4.6" cy="-18.7" r="4.6" fill="#FFB37A"/>
  <circle cx="4.6" cy="-18.7" r="4.6" fill="#FFB37A"/>
  <circle cx="0.0" cy="-23.3" r="4.6" fill="#FFB37A"/>
  <circle cx="0.0" cy="-14.1" r="4.6" fill="#FFB37A"/>
  <circle cx="-3.2" cy="-21.9" r="4.6" fill="#FFB37A"/>
  <circle cx="0" cy="-18.7" r="3.0" fill="#FFEFA8"/>
</g>
<g transform="translate(446.5,251.6)">
  <animateTransform attributeName="transform" type="rotate" values="-4 0 0;4 0 0;-4 0 0" dur="3.5s" begin="0.5s" repeatCount="indefinite" additive="sum"/>
  <line x1="0" y1="0" x2="0" y2="-21.2" stroke="#5FA858" stroke-width="2.4"/>
  <circle cx="-4.2" cy="-21.2" r="4.2" fill="#FF9AD1"/>
  <circle cx="4.2" cy="-21.2" r="4.2" fill="#FF9AD1"/>
  <circle cx="0.0" cy="-25.4" r="4.2" fill="#FF9AD1"/>
  <circle cx="0.0" cy="-17.0" r="4.2" fill="#FF9AD1"/>
  <circle cx="-2.9" cy="-24.2" r="4.2" fill="#FF9AD1"/>
  <circle cx="0" cy="-21.2" r="2.7" fill="#FFEFA8"/>
</g>
<g transform="translate(478.2,249.3)">
  <animateTransform attributeName="transform" type="rotate" values="-4 0 0;4 0 0;-4 0 0" dur="4.5s" begin="2.0s" repeatCount="indefinite" additive="sum"/>
  <line x1="0" y1="0" x2="0" y2="-18.5" stroke="#5FA858" stroke-width="2.4"/>
  <circle cx="-4.0" cy="-18.5" r="4.0" fill="#C9A6EE"/>
  <circle cx="4.0" cy="-18.5" r="4.0" fill="#C9A6EE"/>
  <circle cx="0.0" cy="-22.6" r="4.0" fill="#C9A6EE"/>
  <circle cx="0.0" cy="-14.5" r="4.0" fill="#C9A6EE"/>
  <circle cx="-2.8" cy="-21.3" r="4.0" fill="#C9A6EE"/>
  <circle cx="0" cy="-18.5" r="2.6" fill="#FFEFA8"/>
</g>
<g transform="translate(514.9,251.0)">
  <animateTransform attributeName="transform" type="rotate" values="-4 0 0;4 0 0;-4 0 0" dur="3.6s" begin="1.9s" repeatCount="indefinite" additive="sum"/>
  <line x1="0" y1="0" x2="0" y2="-33.2" stroke="#5FA858" stroke-width="2.4"/>
  <circle cx="-5.6" cy="-33.2" r="5.6" fill="#FF6FB5"/>
  <circle cx="5.6" cy="-33.2" r="5.6" fill="#FF6FB5"/>
  <circle cx="0.0" cy="-38.8" r="5.6" fill="#FF6FB5"/>
  <circle cx="0.0" cy="-27.6" r="5.6" fill="#FF6FB5"/>
  <circle cx="-3.9" cy="-37.1" r="5.6" fill="#FF6FB5"/>
  <circle cx="0" cy="-33.2" r="3.6" fill="#FFEFA8"/>
</g>
<g transform="translate(545.5,231.5)">
  <animateTransform attributeName="transform" type="rotate" values="-4 0 0;4 0 0;-4 0 0" dur="3.8s" begin="1.1s" repeatCount="indefinite" additive="sum"/>
  <line x1="0" y1="0" x2="0" y2="-22.2" stroke="#5FA858" stroke-width="2.4"/>
  <circle cx="-5.4" cy="-22.2" r="5.4" fill="#B679E0"/>
  <circle cx="5.4" cy="-22.2" r="5.4" fill="#B679E0"/>
  <circle cx="0.0" cy="-27.6" r="5.4" fill="#B679E0"/>
  <circle cx="0.0" cy="-16.8" r="5.4" fill="#B679E0"/>
  <circle cx="-3.8" cy="-26.0" r="5.4" fill="#B679E0"/>
  <circle cx="0" cy="-22.2" r="3.5" fill="#FFEFA8"/>
</g>
<g transform="translate(582.9,246.0)">
  <animateTransform attributeName="transform" type="rotate" values="-4 0 0;4 0 0;-4 0 0" dur="3.2s" begin="2.0s" repeatCount="indefinite" additive="sum"/>
  <line x1="0" y1="0" x2="0" y2="-21.4" stroke="#5FA858" stroke-width="2.4"/>
  <circle cx="-5.8" cy="-21.4" r="5.8" fill="#FFD97A"/>
  <circle cx="5.8" cy="-21.4" r="5.8" fill="#FFD97A"/>
  <circle cx="0.0" cy="-27.2" r="5.8" fill="#FFD97A"/>
  <circle cx="0.0" cy="-15.6" r="5.8" fill="#FFD97A"/>
  <circle cx="-4.1" cy="-25.5" r="5.8" fill="#FFD97A"/>
  <circle cx="0" cy="-21.4" r="3.7" fill="#FFEFA8"/>
</g>
<g transform="translate(618.0,230.5)">
  <animateTransform attributeName="transform" type="rotate" values="-4 0 0;4 0 0;-4 0 0" dur="4.1s" begin="0.5s" repeatCount="indefinite" additive="sum"/>
  <line x1="0" y1="0" x2="0" y2="-24.1" stroke="#5FA858" stroke-width="2.4"/>
  <circle cx="-5.2" cy="-24.1" r="5.2" fill="#8EC5FC"/>
  <circle cx="5.2" cy="-24.1" r="5.2" fill="#8EC5FC"/>
  <circle cx="0.0" cy="-29.3" r="5.2" fill="#8EC5FC"/>
  <circle cx="0.0" cy="-18.9" r="5.2" fill="#8EC5FC"/>
  <circle cx="-3.6" cy="-27.7" r="5.2" fill="#8EC5FC"/>
  <circle cx="0" cy="-24.1" r="3.3" fill="#FFEFA8"/>
</g>
<g transform="translate(655.1,237.6)">
  <animateTransform attributeName="transform" type="rotate" values="-4 0 0;4 0 0;-4 0 0" dur="3.6s" begin="1.8s" repeatCount="indefinite" additive="sum"/>
  <line x1="0" y1="0" x2="0" y2="-31.0" stroke="#5FA858" stroke-width="2.4"/>
  <circle cx="-5.2" cy="-31.0" r="5.2" fill="#FFB37A"/>
  <circle cx="5.2" cy="-31.0" r="5.2" fill="#FFB37A"/>
  <circle cx="0.0" cy="-36.2" r="5.2" fill="#FFB37A"/>
  <circle cx="0.0" cy="-25.8" r="5.2" fill="#FFB37A"/>
  <circle cx="-3.7" cy="-34.7" r="5.2" fill="#FFB37A"/>
  <circle cx="0" cy="-31.0" r="3.3" fill="#FFEFA8"/>
</g>
<g transform="translate(686.1,246.9)">
  <animateTransform attributeName="transform" type="rotate" values="-4 0 0;4 0 0;-4 0 0" dur="3.4s" begin="1.8s" repeatCount="indefinite" additive="sum"/>
  <line x1="0" y1="0" x2="0" y2="-23.8" stroke="#5FA858" stroke-width="2.4"/>
  <circle cx="-4.4" cy="-23.8" r="4.4" fill="#FF9AD1"/>
  <circle cx="4.4" cy="-23.8" r="4.4" fill="#FF9AD1"/>
  <circle cx="0.0" cy="-28.2" r="4.4" fill="#FF9AD1"/>
  <circle cx="0.0" cy="-19.3" r="4.4" fill="#FF9AD1"/>
  <circle cx="-3.1" cy="-26.9" r="4.4" fill="#FF9AD1"/>
  <circle cx="0" cy="-23.8" r="2.8" fill="#FFEFA8"/>
</g>
<g transform="translate(727.9,230.4)">
  <animateTransform attributeName="transform" type="rotate" values="-4 0 0;4 0 0;-4 0 0" dur="4.4s" begin="0.0s" repeatCount="indefinite" additive="sum"/>
  <line x1="0" y1="0" x2="0" y2="-30.0" stroke="#5FA858" stroke-width="2.4"/>
  <circle cx="-5.9" cy="-30.0" r="5.9" fill="#C9A6EE"/>
  <circle cx="5.9" cy="-30.0" r="5.9" fill="#C9A6EE"/>
  <circle cx="0.0" cy="-35.9" r="5.9" fill="#C9A6EE"/>
  <circle cx="0.0" cy="-24.1" r="5.9" fill="#C9A6EE"/>
  <circle cx="-4.1" cy="-34.1" r="5.9" fill="#C9A6EE"/>
  <circle cx="0" cy="-30.0" r="3.8" fill="#FFEFA8"/>
</g>
<g transform="translate(761.9,250.8)">
  <animateTransform attributeName="transform" type="rotate" values="-4 0 0;4 0 0;-4 0 0" dur="4.6s" begin="0.8s" repeatCount="indefinite" additive="sum"/>
  <line x1="0" y1="0" x2="0" y2="-26.5" stroke="#5FA858" stroke-width="2.4"/>
  <circle cx="-5.5" cy="-26.5" r="5.5" fill="#FF6FB5"/>
  <circle cx="5.5" cy="-26.5" r="5.5" fill="#FF6FB5"/>
  <circle cx="0.0" cy="-32.0" r="5.5" fill="#FF6FB5"/>
  <circle cx="0.0" cy="-21.0" r="5.5" fill="#FF6FB5"/>
  <circle cx="-3.8" cy="-30.3" r="5.5" fill="#FF6FB5"/>
  <circle cx="0" cy="-26.5" r="3.5" fill="#FFEFA8"/>
</g>
<g transform="translate(798.3,236.8)">
  <animateTransform attributeName="transform" type="rotate" values="-4 0 0;4 0 0;-4 0 0" dur="3.2s" begin="0.4s" repeatCount="indefinite" additive="sum"/>
  <line x1="0" y1="0" x2="0" y2="-17.4" stroke="#5FA858" stroke-width="2.4"/>
  <circle cx="-4.1" cy="-17.4" r="4.1" fill="#B679E0"/>
  <circle cx="4.1" cy="-17.4" r="4.1" fill="#B679E0"/>
  <circle cx="0.0" cy="-21.5" r="4.1" fill="#B679E0"/>
  <circle cx="0.0" cy="-13.3" r="4.1" fill="#B679E0"/>
  <circle cx="-2.9" cy="-20.3" r="4.1" fill="#B679E0"/>
  <circle cx="0" cy="-17.4" r="2.6" fill="#FFEFA8"/>
</g>
<g transform="translate(831.4,244.8)">
  <animateTransform attributeName="transform" type="rotate" values="-4 0 0;4 0 0;-4 0 0" dur="4.4s" begin="0.6s" repeatCount="indefinite" additive="sum"/>
  <line x1="0" y1="0" x2="0" y2="-22.9" stroke="#5FA858" stroke-width="2.4"/>
  <circle cx="-6.2" cy="-22.9" r="6.2" fill="#FFD97A"/>
  <circle cx="6.2" cy="-22.9" r="6.2" fill="#FFD97A"/>
  <circle cx="0.0" cy="-29.1" r="6.2" fill="#FFD97A"/>
  <circle cx="0.0" cy="-16.7" r="6.2" fill="#FFD97A"/>
  <circle cx="-4.4" cy="-27.2" r="6.2" fill="#FFD97A"/>
  <circle cx="0" cy="-22.9" r="4.0" fill="#FFEFA8"/>
</g>
<g transform="translate(862.5,248.0)">
  <animateTransform attributeName="transform" type="rotate" values="-4 0 0;4 0 0;-4 0 0" dur="4.1s" begin="0.2s" repeatCount="indefinite" additive="sum"/>
  <line x1="0" y1="0" x2="0" y2="-20.3" stroke="#5FA858" stroke-width="2.4"/>
  <circle cx="-4.8" cy="-20.3" r="4.8" fill="#8EC5FC"/>
  <circle cx="4.8" cy="-20.3" r="4.8" fill="#8EC5FC"/>
  <circle cx="0.0" cy="-25.1" r="4.8" fill="#8EC5FC"/>
  <circle cx="0.0" cy="-15.5" r="4.8" fill="#8EC5FC"/>
  <circle cx="-3.3" cy="-23.6" r="4.8" fill="#8EC5FC"/>
  <circle cx="0" cy="-20.3" r="3.0" fill="#FFEFA8"/>
</g>
</g>
<g>
<circle cx="687.6" cy="51.8" r="7" fill="url(#fireflyGlow)"><animate attributeName="opacity" values="0;1;0" dur="2.9s" begin="0.3s" repeatCount="indefinite"/></circle>
<circle cx="687.6" cy="51.8" r="1.8" fill="#FFE07A"><animate attributeName="opacity" values="0;1;0" dur="2.9s" begin="0.3s" repeatCount="indefinite"/></circle>
<circle cx="524.6" cy="91.2" r="7" fill="url(#fireflyGlow)"><animate attributeName="opacity" values="0;1;0" dur="2.2s" begin="1.3s" repeatCount="indefinite"/></circle>
<circle cx="524.6" cy="91.2" r="1.8" fill="#FFE07A"><animate attributeName="opacity" values="0;1;0" dur="2.2s" begin="1.3s" repeatCount="indefinite"/></circle>
<circle cx="92.7" cy="164.5" r="7" fill="url(#fireflyGlow)"><animate attributeName="opacity" values="0;1;0" dur="3.0s" begin="0.3s" repeatCount="indefinite"/></circle>
<circle cx="92.7" cy="164.5" r="1.8" fill="#FFE07A"><animate attributeName="opacity" values="0;1;0" dur="3.0s" begin="0.3s" repeatCount="indefinite"/></circle>
<circle cx="787.8" cy="141.9" r="7" fill="url(#fireflyGlow)"><animate attributeName="opacity" values="0;1;0" dur="2.6s" begin="1.5s" repeatCount="indefinite"/></circle>
<circle cx="787.8" cy="141.9" r="1.8" fill="#FFE07A"><animate attributeName="opacity" values="0;1;0" dur="2.6s" begin="1.5s" repeatCount="indefinite"/></circle>
<circle cx="639.8" cy="104.2" r="7" fill="url(#fireflyGlow)"><animate attributeName="opacity" values="0;1;0" dur="2.2s" begin="1.2s" repeatCount="indefinite"/></circle>
<circle cx="639.8" cy="104.2" r="1.8" fill="#FFE07A"><animate attributeName="opacity" values="0;1;0" dur="2.2s" begin="1.2s" repeatCount="indefinite"/></circle>
<circle cx="144.5" cy="147.2" r="7" fill="url(#fireflyGlow)"><animate attributeName="opacity" values="0;1;0" dur="2.8s" begin="1.0s" repeatCount="indefinite"/></circle>
<circle cx="144.5" cy="147.2" r="1.8" fill="#FFE07A"><animate attributeName="opacity" values="0;1;0" dur="2.8s" begin="1.0s" repeatCount="indefinite"/></circle>
<circle cx="389.2" cy="131.1" r="7" fill="url(#fireflyGlow)"><animate attributeName="opacity" values="0;1;0" dur="2.5s" begin="1.8s" repeatCount="indefinite"/></circle>
<circle cx="389.2" cy="131.1" r="1.8" fill="#FFE07A"><animate attributeName="opacity" values="0;1;0" dur="2.5s" begin="1.8s" repeatCount="indefinite"/></circle>
<circle cx="667.5" cy="113.9" r="7" fill="url(#fireflyGlow)"><animate attributeName="opacity" values="0;1;0" dur="2.9s" begin="0.0s" repeatCount="indefinite"/></circle>
<circle cx="667.5" cy="113.9" r="1.8" fill="#FFE07A"><animate attributeName="opacity" values="0;1;0" dur="2.9s" begin="0.0s" repeatCount="indefinite"/></circle>
<circle cx="610.4" cy="143.7" r="7" fill="url(#fireflyGlow)"><animate attributeName="opacity" values="0;1;0" dur="2.8s" begin="1.9s" repeatCount="indefinite"/></circle>
<circle cx="610.4" cy="143.7" r="1.8" fill="#FFE07A"><animate attributeName="opacity" values="0;1;0" dur="2.8s" begin="1.9s" repeatCount="indefinite"/></circle>
</g>

<g transform="translate(150,70) scale(1.1)">
  <g>
    <ellipse cx="-6" cy="-4" rx="9" ry="6" fill="#FF9AD1"/>
    <ellipse cx="6" cy="-4" rx="9" ry="6" fill="#FFC2E4"/>
    <ellipse cx="-5" cy="5" rx="6" ry="4" fill="#FFC2E4"/>
    <ellipse cx="5" cy="5" rx="6" ry="4" fill="#FF9AD1"/>
    <line x1="0" y1="-8" x2="0" y2="8" stroke="#6B2F55" stroke-width="1.4"/>
    <animateTransform attributeName="transform" type="scale" values="1,1;0.65,1;1,1" dur="1.2s" repeatCount="indefinite" additive="sum"/>
  </g>
</g>

<g>
  <g>
    <ellipse cx="-6" cy="-4" rx="8" ry="5.5" fill="#C9A6EE"/>
    <ellipse cx="6" cy="-4" rx="8" ry="5.5" fill="#E6C9F5"/>
    <ellipse cx="-5" cy="5" rx="5.5" ry="3.6" fill="#E6C9F5"/>
    <ellipse cx="5" cy="5" rx="5.5" ry="3.6" fill="#C9A6EE"/>
    <line x1="0" y1="-7" x2="0" y2="7" stroke="#5C2E6E" stroke-width="1.2"/>
    <animateTransform attributeName="transform" type="scale" values="1,1;0.6,1;1,1" dur="1s" repeatCount="indefinite" additive="sum"/>
    <animateMotion dur="9s" repeatCount="indefinite"
      path="M0,0 C120,-30 220,20 340,-10 C460,-35 560,10 680,-15 C760,-30 800,-5 820,-20" />
  </g>
</g>
</svg>